<?xml version="1.0" encoding="utf-8" standalone="no"?>
<!DOCTYPE svg PUBLIC "-//W3C//DTD SVG 1.1//EN"
  "http://www.w3.org/Graphics/SVG/1.1/DTD/svg11.dtd">
<svg xmlns:xlink="http://www.w3.org/1999/xlink" width="864pt" height="360pt" viewBox="0 0 864 360" xmlns="http://www.w3.org/2000/svg" version="1.1">
 <metadata>
  <rdf:RDF xmlns:dc="http://purl.org/dc/elements/1.1/" xmlns:cc="http://creativecommons.org/ns#" xmlns:rdf="http://www.w3.org/1999/02/22-rdf-syntax-ns#">
   <cc:Work>
    <dc:type rdf:resource="http://purl.org/dc/dcmitype/StillImage"/>
    <dc:date>2024-01-29T08:10:44.610027</dc:date>
    <dc:format>image/svg+xml</dc:format>
    <dc:creator>
     <cc:Agent>
      <dc:title>Matplotlib v3.8.2, https://matplotlib.org/</dc:title>
     </cc:Agent>
    </dc:creator>
   </cc:Work>
  </rdf:RDF>
 </metadata>
 <defs>
  <style type="text/css">*{stroke-linejoin: round; stroke-linecap: butt}</style>
 </defs>
 <g id="figure_1">
  <g id="patch_1">
   <path d="M 0 360 
L 864 360 
L 864 0 
L 0 0 
L 0 360 
z
" style="fill: none; opacity: 0"/>
  </g>
  <g id="axes_1">
   <g id="patch_2">
    <path d="M 108 320.4 
L 777.6 320.4 
L 777.6 43.2 
L 108 43.2 
L 108 320.4 
z
" style="fill: none; opacity: 0"/>
   </g>
   <g id="matplotlib.axis_1">
    <g id="xtick_1">
     <g id="line2d_1">
      <path d="M 123.201622 320.4 
L 123.201622 43.2 
" clip-path="url(#p211ddfc242)" style="fill: none; stroke-dasharray: 5.12,1.28,0.8,1.28; stroke-dashoffset: 0; stroke: #b0b0b0; stroke-width: 0.8"/>
     </g>
     <g id="line2d_2">
      <defs>
       <path id="m3ee5337f43" d="M 0 0 
L 0 3.5 
" style="stroke: #a9a9a9; stroke-width: 0.8"/>
      </defs>
      <g>
       <use xlink:href="#m3ee5337f43" x="123.201622" y="320.4" style="fill: #a9a9a9; stroke: #a9a9a9; stroke-width: 0.8"/>
      </g>
     </g>
     <g id="text_1">
      <!-- 2021-07 -->
      <g style="fill: #a9a9a9" transform="translate(102.310216 334.998438) scale(0.1 -0.1)">
       <defs>
        <path id="DejaVuSans-32" d="M 1228 531 
L 3431 531 
L 3431 0 
L 469 0 
L 469 531 
Q 828 903 1448 1529 
Q 2069 2156 2228 2338 
Q 2531 2678 2651 2914 
Q 2772 3150 2772 3378 
Q 2772 3750 2511 3984 
Q 2250 4219 1831 4219 
Q 1534 4219 1204 4116 
Q 875 4013 500 3803 
L 500 4441 
Q 881 4594 1212 4672 
Q 1544 4750 1819 4750 
Q 2544 4750 2975 4387 
Q 3406 4025 3406 3419 
Q 3406 3131 3298 2873 
Q 3191 2616 2906 2266 
Q 2828 2175 2409 1742 
Q 1991 1309 1228 531 
z
" transform="scale(0.015625)"/>
        <path id="DejaVuSans-30" d="M 2034 4250 
Q 1547 4250 1301 3770 
Q 1056 3291 1056 2328 
Q 1056 1369 1301 889 
Q 1547 409 2034 409 
Q 2525 409 2770 889 
Q 3016 1369 3016 2328 
Q 3016 3291 2770 3770 
Q 2525 4250 2034 4250 
z
M 2034 4750 
Q 2819 4750 3233 4129 
Q 3647 3509 3647 2328 
Q 3647 1150 3233 529 
Q 2819 -91 2034 -91 
Q 1250 -91 836 529 
Q 422 1150 422 2328 
Q 422 3509 836 4129 
Q 1250 4750 2034 4750 
z
" transform="scale(0.015625)"/>
        <path id="DejaVuSans-31" d="M 794 531 
L 1825 531 
L 1825 4091 
L 703 3866 
L 703 4441 
L 1819 4666 
L 2450 4666 
L 2450 531 
L 3481 531 
L 3481 0 
L 794 0 
L 794 531 
z
" transform="scale(0.015625)"/>
        <path id="DejaVuSans-2d" d="M 313 2009 
L 1997 2009 
L 1997 1497 
L 313 1497 
L 313 2009 
z
" transform="scale(0.015625)"/>
        <path id="DejaVuSans-37" d="M 525 4666 
L 3525 4666 
L 3525 4397 
L 1831 0 
L 1172 0 
L 2766 4134 
L 525 4134 
L 525 4666 
z
" transform="scale(0.015625)"/>
       </defs>
       <use xlink:href="#DejaVuSans-32"/>
       <use xlink:href="#DejaVuSans-30" x="63.623047"/>
       <use xlink:href="#DejaVuSans-32" x="127.246094"/>
       <use xlink:href="#DejaVuSans-31" x="190.869141"/>
       <use xlink:href="#DejaVuSans-2d" x="254.492188"/>
       <use xlink:href="#DejaVuSans-30" x="290.576172"/>
       <use xlink:href="#DejaVuSans-37" x="354.199219"/>
      </g>
     </g>
    </g>
    <g id="xtick_2">
     <g id="line2d_3">
      <path d="M 184.140588 320.4 
L 184.140588 43.2 
" clip-path="url(#p211ddfc242)" style="fill: none; stroke-dasharray: 5.12,1.28,0.8,1.28; stroke-dashoffset: 0; stroke: #b0b0b0; stroke-width: 0.8"/>
     </g>
     <g id="line2d_4">
      <g>
       <use xlink:href="#m3ee5337f43" x="184.140588" y="320.4" style="fill: #a9a9a9; stroke: #a9a9a9; stroke-width: 0.8"/>
      </g>
     </g>
     <g id="text_2">
      <!-- 2021-10 -->
      <g style="fill: #a9a9a9" transform="translate(163.249181 334.998438) scale(0.1 -0.1)">
       <use xlink:href="#DejaVuSans-32"/>
       <use xlink:href="#DejaVuSans-30" x="63.623047"/>
       <use xlink:href="#DejaVuSans-32" x="127.246094"/>
       <use xlink:href="#DejaVuSans-31" x="190.869141"/>
       <use xlink:href="#DejaVuSans-2d" x="254.492188"/>
       <use xlink:href="#DejaVuSans-31" x="290.576172"/>
       <use xlink:href="#DejaVuSans-30" x="354.199219"/>
      </g>
     </g>
    </g>
    <g id="xtick_3">
     <g id="line2d_5">
      <path d="M 245.079553 320.4 
L 245.079553 43.2 
" clip-path="url(#p211ddfc242)" style="fill: none; stroke-dasharray: 5.12,1.28,0.8,1.28; stroke-dashoffset: 0; stroke: #b0b0b0; stroke-width: 0.8"/>
     </g>
     <g id="line2d_6">
      <g>
       <use xlink:href="#m3ee5337f43" x="245.079553" y="320.4" style="fill: #a9a9a9; stroke: #a9a9a9; stroke-width: 0.8"/>
      </g>
     </g>
     <g id="text_3">
      <!-- 2022-01 -->
      <g style="fill: #a9a9a9" transform="translate(224.188147 334.998438) scale(0.1 -0.1)">
       <use xlink:href="#DejaVuSans-32"/>
       <use xlink:href="#DejaVuSans-30" x="63.623047"/>
       <use xlink:href="#DejaVuSans-32" x="127.246094"/>
       <use xlink:href="#DejaVuSans-32" x="190.869141"/>
       <use xlink:href="#DejaVuSans-2d" x="254.492188"/>
       <use xlink:href="#DejaVuSans-30" x="290.576172"/>
       <use xlink:href="#DejaVuSans-31" x="354.199219"/>
      </g>
     </g>
    </g>
    <g id="xtick_4">
     <g id="line2d_7">
      <path d="M 304.693758 320.4 
L 304.693758 43.2 
" clip-path="url(#p211ddfc242)" style="fill: none; stroke-dasharray: 5.12,1.28,0.8,1.28; stroke-dashoffset: 0; stroke: #b0b0b0; stroke-width: 0.8"/>
     </g>
     <g id="line2d_8">
      <g>
       <use xlink:href="#m3ee5337f43" x="304.693758" y="320.4" style="fill: #a9a9a9; stroke: #a9a9a9; stroke-width: 0.8"/>
      </g>
     </g>
     <g id="text_4">
      <!-- 2022-04 -->
      <g style="fill: #a9a9a9" transform="translate(283.802352 334.998438) scale(0.1 -0.1)">
       <defs>
        <path id="DejaVuSans-34" d="M 2419 4116 
L 825 1625 
L 2419 1625 
L 2419 4116 
z
M 2253 4666 
L 3047 4666 
L 3047 1625 
L 3713 1625 
L 3713 1100 
L 3047 1100 
L 3047 0 
L 2419 0 
L 2419 1100 
L 313 1100 
L 313 1709 
L 2253 4666 
z
" transform="scale(0.015625)"/>
       </defs>
       <use xlink:href="#DejaVuSans-32"/>
       <use xlink:href="#DejaVuSans-30" x="63.623047"/>
       <use xlink:href="#DejaVuSans-32" x="127.246094"/>
       <use xlink:href="#DejaVuSans-32" x="190.869141"/>
       <use xlink:href="#DejaVuSans-2d" x="254.492188"/>
       <use xlink:href="#DejaVuSans-30" x="290.576172"/>
       <use xlink:href="#DejaVuSans-34" x="354.199219"/>
      </g>
     </g>
    </g>
    <g id="xtick_5">
     <g id="line2d_9">
      <path d="M 364.970343 320.4 
L 364.970343 43.2 
" clip-path="url(#p211ddfc242)" style="fill: none; stroke-dasharray: 5.12,1.28,0.8,1.28; stroke-dashoffset: 0; stroke: #b0b0b0; stroke-width: 0.8"/>
     </g>
     <g id="line2d_10">
      <g>
       <use xlink:href="#m3ee5337f43" x="364.970343" y="320.4" style="fill: #a9a9a9; stroke: #a9a9a9; stroke-width: 0.8"/>
      </g>
     </g>
     <g id="text_5">
      <!-- 2022-07 -->
      <g style="fill: #a9a9a9" transform="translate(344.078937 334.998438) scale(0.1 -0.1)">
       <use xlink:href="#DejaVuSans-32"/>
       <use xlink:href="#DejaVuSans-30" x="63.623047"/>
       <use xlink:href="#DejaVuSans-32" x="127.246094"/>
       <use xlink:href="#DejaVuSans-32" x="190.869141"/>
       <use xlink:href="#DejaVuSans-2d" x="254.492188"/>
       <use xlink:href="#DejaVuSans-30" x="290.576172"/>
       <use xlink:href="#DejaVuSans-37" x="354.199219"/>
      </g>
     </g>
    </g>
    <g id="xtick_6">
     <g id="line2d_11">
      <path d="M 425.909309 320.4 
L 425.909309 43.2 
" clip-path="url(#p211ddfc242)" style="fill: none; stroke-dasharray: 5.12,1.28,0.8,1.28; stroke-dashoffset: 0; stroke: #b0b0b0; stroke-width: 0.8"/>
     </g>
     <g id="line2d_12">
      <g>
       <use xlink:href="#m3ee5337f43" x="425.909309" y="320.4" style="fill: #a9a9a9; stroke: #a9a9a9; stroke-width: 0.8"/>
      </g>
     </g>
     <g id="text_6">
      <!-- 2022-10 -->
      <g style="fill: #a9a9a9" transform="translate(405.017902 334.998438) scale(0.1 -0.1)">
       <use xlink:href="#DejaVuSans-32"/>
       <use xlink:href="#DejaVuSans-30" x="63.623047"/>
       <use xlink:href="#DejaVuSans-32" x="127.246094"/>
       <use xlink:href="#DejaVuSans-32" x="190.869141"/>
       <use xlink:href="#DejaVuSans-2d" x="254.492188"/>
       <use xlink:href="#DejaVuSans-31" x="290.576172"/>
       <use xlink:href="#DejaVuSans-30" x="354.199219"/>
      </g>
     </g>
    </g>
    <g id="xtick_7">
     <g id="line2d_13">
      <path d="M 486.848274 320.4 
L 486.848274 43.2 
" clip-path="url(#p211ddfc242)" style="fill: none; stroke-dasharray: 5.12,1.28,0.8,1.28; stroke-dashoffset: 0; stroke: #b0b0b0; stroke-width: 0.8"/>
     </g>
     <g id="line2d_14">
      <g>
       <use xlink:href="#m3ee5337f43" x="486.848274" y="320.4" style="fill: #a9a9a9; stroke: #a9a9a9; stroke-width: 0.8"/>
      </g>
     </g>
     <g id="text_7">
      <!-- 2023-01 -->
      <g style="fill: #a9a9a9" transform="translate(465.956868 334.998438) scale(0.1 -0.1)">
       <defs>
        <path id="DejaVuSans-33" d="M 2597 2516 
Q 3050 2419 3304 2112 
Q 3559 1806 3559 1356 
Q 3559 666 3084 287 
Q 2609 -91 1734 -91 
Q 1441 -91 1130 -33 
Q 819 25 488 141 
L 488 750 
Q 750 597 1062 519 
Q 1375 441 1716 441 
Q 2309 441 2620 675 
Q 2931 909 2931 1356 
Q 2931 1769 2642 2001 
Q 2353 2234 1838 2234 
L 1294 2234 
L 1294 2753 
L 1863 2753 
Q 2328 2753 2575 2939 
Q 2822 3125 2822 3475 
Q 2822 3834 2567 4026 
Q 2313 4219 1838 4219 
Q 1578 4219 1281 4162 
Q 984 4106 628 3988 
L 628 4550 
Q 988 4650 1302 4700 
Q 1616 4750 1894 4750 
Q 2613 4750 3031 4423 
Q 3450 4097 3450 3541 
Q 3450 3153 3228 2886 
Q 3006 2619 2597 2516 
z
" transform="scale(0.015625)"/>
       </defs>
       <use xlink:href="#DejaVuSans-32"/>
       <use xlink:href="#DejaVuSans-30" x="63.623047"/>
       <use xlink:href="#DejaVuSans-32" x="127.246094"/>
       <use xlink:href="#DejaVuSans-33" x="190.869141"/>
       <use xlink:href="#DejaVuSans-2d" x="254.492188"/>
       <use xlink:href="#DejaVuSans-30" x="290.576172"/>
       <use xlink:href="#DejaVuSans-31" x="354.199219"/>
      </g>
     </g>
    </g>
    <g id="xtick_8">
     <g id="line2d_15">
      <path d="M 546.462479 320.4 
L 546.462479 43.2 
" clip-path="url(#p211ddfc242)" style="fill: none; stroke-dasharray: 5.12,1.28,0.8,1.28; stroke-dashoffset: 0; stroke: #b0b0b0; stroke-width: 0.8"/>
     </g>
     <g id="line2d_16">
      <g>
       <use xlink:href="#m3ee5337f43" x="546.462479" y="320.4" style="fill: #a9a9a9; stroke: #a9a9a9; stroke-width: 0.8"/>
      </g>
     </g>
     <g id="text_8">
      <!-- 2023-04 -->
      <g style="fill: #a9a9a9" transform="translate(525.571073 334.998438) scale(0.1 -0.1)">
       <use xlink:href="#DejaVuSans-32"/>
       <use xlink:href="#DejaVuSans-30" x="63.623047"/>
       <use xlink:href="#DejaVuSans-32" x="127.246094"/>
       <use xlink:href="#DejaVuSans-33" x="190.869141"/>
       <use xlink:href="#DejaVuSans-2d" x="254.492188"/>
       <use xlink:href="#DejaVuSans-30" x="290.576172"/>
       <use xlink:href="#DejaVuSans-34" x="354.199219"/>
      </g>
     </g>
    </g>
    <g id="xtick_9">
     <g id="line2d_17">
      <path d="M 606.739064 320.4 
L 606.739064 43.2 
" clip-path="url(#p211ddfc242)" style="fill: none; stroke-dasharray: 5.12,1.28,0.8,1.28; stroke-dashoffset: 0; stroke: #b0b0b0; stroke-width: 0.8"/>
     </g>
     <g id="line2d_18">
      <g>
       <use xlink:href="#m3ee5337f43" x="606.739064" y="320.4" style="fill: #a9a9a9; stroke: #a9a9a9; stroke-width: 0.8"/>
      </g>
     </g>
     <g id="text_9">
      <!-- 2023-07 -->
      <g style="fill: #a9a9a9" transform="translate(585.847658 334.998438) scale(0.1 -0.1)">
       <use xlink:href="#DejaVuSans-32"/>
       <use xlink:href="#DejaVuSans-30" x="63.623047"/>
       <use xlink:href="#DejaVuSans-32" x="127.246094"/>
       <use xlink:href="#DejaVuSans-33" x="190.869141"/>
       <use xlink:href="#DejaVuSans-2d" x="254.492188"/>
       <use xlink:href="#DejaVuSans-30" x="290.576172"/>
       <use xlink:href="#DejaVuSans-37" x="354.199219"/>
      </g>
     </g>
    </g>
    <g id="xtick_10">
     <g id="line2d_19">
      <path d="M 667.678029 320.4 
L 667.678029 43.2 
" clip-path="url(#p211ddfc242)" style="fill: none; stroke-dasharray: 5.12,1.28,0.8,1.28; stroke-dashoffset: 0; stroke: #b0b0b0; stroke-width: 0.8"/>
     </g>
     <g id="line2d_20">
      <g>
       <use xlink:href="#m3ee5337f43" x="667.678029" y="320.4" style="fill: #a9a9a9; stroke: #a9a9a9; stroke-width: 0.8"/>
      </g>
     </g>
     <g id="text_10">
      <!-- 2023-10 -->
      <g style="fill: #a9a9a9" transform="translate(646.786623 334.998438) scale(0.1 -0.1)">
       <use xlink:href="#DejaVuSans-32"/>
       <use xlink:href="#DejaVuSans-30" x="63.623047"/>
       <use xlink:href="#DejaVuSans-32" x="127.246094"/>
       <use xlink:href="#DejaVuSans-33" x="190.869141"/>
       <use xlink:href="#DejaVuSans-2d" x="254.492188"/>
       <use xlink:href="#DejaVuSans-31" x="290.576172"/>
       <use xlink:href="#DejaVuSans-30" x="354.199219"/>
      </g>
     </g>
    </g>
    <g id="xtick_11">
     <g id="line2d_21">
      <path d="M 728.616995 320.4 
L 728.616995 43.2 
" clip-path="url(#p211ddfc242)" style="fill: none; stroke-dasharray: 5.12,1.28,0.8,1.28; stroke-dashoffset: 0; stroke: #b0b0b0; stroke-width: 0.8"/>
     </g>
     <g id="line2d_22">
      <g>
       <use xlink:href="#m3ee5337f43" x="728.616995" y="320.4" style="fill: #a9a9a9; stroke: #a9a9a9; stroke-width: 0.8"/>
      </g>
     </g>
     <g id="text_11">
      <!-- 2024-01 -->
      <g style="fill: #a9a9a9" transform="translate(707.725589 334.998438) scale(0.1 -0.1)">
       <use xlink:href="#DejaVuSans-32"/>
       <use xlink:href="#DejaVuSans-30" x="63.623047"/>
       <use xlink:href="#DejaVuSans-32" x="127.246094"/>
       <use xlink:href="#DejaVuSans-34" x="190.869141"/>
       <use xlink:href="#DejaVuSans-2d" x="254.492188"/>
       <use xlink:href="#DejaVuSans-30" x="290.576172"/>
       <use xlink:href="#DejaVuSans-31" x="354.199219"/>
      </g>
     </g>
    </g>
   </g>
   <g id="matplotlib.axis_2">
    <g id="ytick_1">
     <g id="line2d_23">
      <path d="M 108 307.845504 
L 777.6 307.845504 
" clip-path="url(#p211ddfc242)" style="fill: none; stroke-dasharray: 5.12,1.28,0.8,1.28; stroke-dashoffset: 0; stroke: #b0b0b0; stroke-width: 0.8"/>
     </g>
     <g id="line2d_24">
      <defs>
       <path id="m81da38bfb6" d="M 0 0 
L -3.5 0 
" style="stroke: #a9a9a9; stroke-width: 0.8"/>
      </defs>
      <g>
       <use xlink:href="#m81da38bfb6" x="108" y="307.845504" style="fill: #a9a9a9; stroke: #a9a9a9; stroke-width: 0.8"/>
      </g>
     </g>
     <g id="text_12">
      <!-- 0 -->
      <g style="fill: #a9a9a9" transform="translate(94.6375 311.644723) scale(0.1 -0.1)">
       <use xlink:href="#DejaVuSans-30"/>
      </g>
     </g>
    </g>
    <g id="ytick_2">
     <g id="line2d_25">
      <path d="M 108 271.44247 
L 777.6 271.44247 
" clip-path="url(#p211ddfc242)" style="fill: none; stroke-dasharray: 5.12,1.28,0.8,1.28; stroke-dashoffset: 0; stroke: #b0b0b0; stroke-width: 0.8"/>
     </g>
     <g id="line2d_26">
      <g>
       <use xlink:href="#m81da38bfb6" x="108" y="271.44247" style="fill: #a9a9a9; stroke: #a9a9a9; stroke-width: 0.8"/>
      </g>
     </g>
     <g id="text_13">
      <!-- 800 -->
      <g style="fill: #a9a9a9" transform="translate(81.9125 275.241689) scale(0.1 -0.1)">
       <defs>
        <path id="DejaVuSans-38" d="M 2034 2216 
Q 1584 2216 1326 1975 
Q 1069 1734 1069 1313 
Q 1069 891 1326 650 
Q 1584 409 2034 409 
Q 2484 409 2743 651 
Q 3003 894 3003 1313 
Q 3003 1734 2745 1975 
Q 2488 2216 2034 2216 
z
M 1403 2484 
Q 997 2584 770 2862 
Q 544 3141 544 3541 
Q 544 4100 942 4425 
Q 1341 4750 2034 4750 
Q 2731 4750 3128 4425 
Q 3525 4100 3525 3541 
Q 3525 3141 3298 2862 
Q 3072 2584 2669 2484 
Q 3125 2378 3379 2068 
Q 3634 1759 3634 1313 
Q 3634 634 3220 271 
Q 2806 -91 2034 -91 
Q 1263 -91 848 271 
Q 434 634 434 1313 
Q 434 1759 690 2068 
Q 947 2378 1403 2484 
z
M 1172 3481 
Q 1172 3119 1398 2916 
Q 1625 2713 2034 2713 
Q 2441 2713 2670 2916 
Q 2900 3119 2900 3481 
Q 2900 3844 2670 4047 
Q 2441 4250 2034 4250 
Q 1625 4250 1398 4047 
Q 1172 3844 1172 3481 
z
" transform="scale(0.015625)"/>
       </defs>
       <use xlink:href="#DejaVuSans-38"/>
       <use xlink:href="#DejaVuSans-30" x="63.623047"/>
       <use xlink:href="#DejaVuSans-30" x="127.246094"/>
      </g>
     </g>
    </g>
    <g id="ytick_3">
     <g id="line2d_27">
      <path d="M 108 235.039437 
L 777.6 235.039437 
" clip-path="url(#p211ddfc242)" style="fill: none; stroke-dasharray: 5.12,1.28,0.8,1.28; stroke-dashoffset: 0; stroke: #b0b0b0; stroke-width: 0.8"/>
     </g>
     <g id="line2d_28">
      <g>
       <use xlink:href="#m81da38bfb6" x="108" y="235.039437" style="fill: #a9a9a9; stroke: #a9a9a9; stroke-width: 0.8"/>
      </g>
     </g>
     <g id="text_14">
      <!-- 1600 -->
      <g style="fill: #a9a9a9" transform="translate(75.55 238.838655) scale(0.1 -0.1)">
       <defs>
        <path id="DejaVuSans-36" d="M 2113 2584 
Q 1688 2584 1439 2293 
Q 1191 2003 1191 1497 
Q 1191 994 1439 701 
Q 1688 409 2113 409 
Q 2538 409 2786 701 
Q 3034 994 3034 1497 
Q 3034 2003 2786 2293 
Q 2538 2584 2113 2584 
z
M 3366 4563 
L 3366 3988 
Q 3128 4100 2886 4159 
Q 2644 4219 2406 4219 
Q 1781 4219 1451 3797 
Q 1122 3375 1075 2522 
Q 1259 2794 1537 2939 
Q 1816 3084 2150 3084 
Q 2853 3084 3261 2657 
Q 3669 2231 3669 1497 
Q 3669 778 3244 343 
Q 2819 -91 2113 -91 
Q 1303 -91 875 529 
Q 447 1150 447 2328 
Q 447 3434 972 4092 
Q 1497 4750 2381 4750 
Q 2619 4750 2861 4703 
Q 3103 4656 3366 4563 
z
" transform="scale(0.015625)"/>
       </defs>
       <use xlink:href="#DejaVuSans-31"/>
       <use xlink:href="#DejaVuSans-36" x="63.623047"/>
       <use xlink:href="#DejaVuSans-30" x="127.246094"/>
       <use xlink:href="#DejaVuSans-30" x="190.869141"/>
      </g>
     </g>
    </g>
    <g id="ytick_4">
     <g id="line2d_29">
      <path d="M 108 198.636403 
L 777.6 198.636403 
" clip-path="url(#p211ddfc242)" style="fill: none; stroke-dasharray: 5.12,1.28,0.8,1.28; stroke-dashoffset: 0; stroke: #b0b0b0; stroke-width: 0.8"/>
     </g>
     <g id="line2d_30">
      <g>
       <use xlink:href="#m81da38bfb6" x="108" y="198.636403" style="fill: #a9a9a9; stroke: #a9a9a9; stroke-width: 0.8"/>
      </g>
     </g>
     <g id="text_15">
      <!-- 2400 -->
      <g style="fill: #a9a9a9" transform="translate(75.55 202.435622) scale(0.1 -0.1)">
       <use xlink:href="#DejaVuSans-32"/>
       <use xlink:href="#DejaVuSans-34" x="63.623047"/>
       <use xlink:href="#DejaVuSans-30" x="127.246094"/>
       <use xlink:href="#DejaVuSans-30" x="190.869141"/>
      </g>
     </g>
    </g>
    <g id="ytick_5">
     <g id="line2d_31">
      <path d="M 108 162.233369 
L 777.6 162.233369 
" clip-path="url(#p211ddfc242)" style="fill: none; stroke-dasharray: 5.12,1.28,0.8,1.28; stroke-dashoffset: 0; stroke: #b0b0b0; stroke-width: 0.8"/>
     </g>
     <g id="line2d_32">
      <g>
       <use xlink:href="#m81da38bfb6" x="108" y="162.233369" style="fill: #a9a9a9; stroke: #a9a9a9; stroke-width: 0.8"/>
      </g>
     </g>
     <g id="text_16">
      <!-- 3200 -->
      <g style="fill: #a9a9a9" transform="translate(75.55 166.032588) scale(0.1 -0.1)">
       <use xlink:href="#DejaVuSans-33"/>
       <use xlink:href="#DejaVuSans-32" x="63.623047"/>
       <use xlink:href="#DejaVuSans-30" x="127.246094"/>
       <use xlink:href="#DejaVuSans-30" x="190.869141"/>
      </g>
     </g>
    </g>
    <g id="ytick_6">
     <g id="line2d_33">
      <path d="M 108 125.830336 
L 777.6 125.830336 
" clip-path="url(#p211ddfc242)" style="fill: none; stroke-dasharray: 5.12,1.28,0.8,1.28; stroke-dashoffset: 0; stroke: #b0b0b0; stroke-width: 0.8"/>
     </g>
     <g id="line2d_34">
      <g>
       <use xlink:href="#m81da38bfb6" x="108" y="125.830336" style="fill: #a9a9a9; stroke: #a9a9a9; stroke-width: 0.8"/>
      </g>
     </g>
     <g id="text_17">
      <!-- 4000 -->
      <g style="fill: #a9a9a9" transform="translate(75.55 129.629555) scale(0.1 -0.1)">
       <use xlink:href="#DejaVuSans-34"/>
       <use xlink:href="#DejaVuSans-30" x="63.623047"/>
       <use xlink:href="#DejaVuSans-30" x="127.246094"/>
       <use xlink:href="#DejaVuSans-30" x="190.869141"/>
      </g>
     </g>
    </g>
    <g id="ytick_7">
     <g id="line2d_35">
      <path d="M 108 89.427302 
L 777.6 89.427302 
" clip-path="url(#p211ddfc242)" style="fill: none; stroke-dasharray: 5.12,1.28,0.8,1.28; stroke-dashoffset: 0; stroke: #b0b0b0; stroke-width: 0.8"/>
     </g>
     <g id="line2d_36">
      <g>
       <use xlink:href="#m81da38bfb6" x="108" y="89.427302" style="fill: #a9a9a9; stroke: #a9a9a9; stroke-width: 0.8"/>
      </g>
     </g>
     <g id="text_18">
      <!-- 4800 -->
      <g style="fill: #a9a9a9" transform="translate(75.55 93.226521) scale(0.1 -0.1)">
       <use xlink:href="#DejaVuSans-34"/>
       <use xlink:href="#DejaVuSans-38" x="63.623047"/>
       <use xlink:href="#DejaVuSans-30" x="127.246094"/>
       <use xlink:href="#DejaVuSans-30" x="190.869141"/>
      </g>
     </g>
    </g>
    <g id="ytick_8">
     <g id="line2d_37">
      <path d="M 108 53.024269 
L 777.6 53.024269 
" clip-path="url(#p211ddfc242)" style="fill: none; stroke-dasharray: 5.12,1.28,0.8,1.28; stroke-dashoffset: 0; stroke: #b0b0b0; stroke-width: 0.8"/>
     </g>
     <g id="line2d_38">
      <g>
       <use xlink:href="#m81da38bfb6" x="108" y="53.024269" style="fill: #a9a9a9; stroke: #a9a9a9; stroke-width: 0.8"/>
      </g>
     </g>
     <g id="text_19">
      <!-- 5600 -->
      <g style="fill: #a9a9a9" transform="translate(75.55 56.823487) scale(0.1 -0.1)">
       <defs>
        <path id="DejaVuSans-35" d="M 691 4666 
L 3169 4666 
L 3169 4134 
L 1269 4134 
L 1269 2991 
Q 1406 3038 1543 3061 
Q 1681 3084 1819 3084 
Q 2600 3084 3056 2656 
Q 3513 2228 3513 1497 
Q 3513 744 3044 326 
Q 2575 -91 1722 -91 
Q 1428 -91 1123 -41 
Q 819 9 494 109 
L 494 744 
Q 775 591 1075 516 
Q 1375 441 1709 441 
Q 2250 441 2565 725 
Q 2881 1009 2881 1497 
Q 2881 1984 2565 2268 
Q 2250 2553 1709 2553 
Q 1456 2553 1204 2497 
Q 953 2441 691 2322 
L 691 4666 
z
" transform="scale(0.015625)"/>
       </defs>
       <use xlink:href="#DejaVuSans-35"/>
       <use xlink:href="#DejaVuSans-36" x="63.623047"/>
       <use xlink:href="#DejaVuSans-30" x="127.246094"/>
       <use xlink:href="#DejaVuSans-30" x="190.869141"/>
      </g>
     </g>
    </g>
   </g>
   <g id="line2d_39">
    <path d="M 138.436364 307.708992 
L 142.410644 307.390466 
L 143.073024 307.117443 
L 145.060164 306.889924 
L 149.696825 306.025352 
L 153.008725 305.706826 
L 153.671105 305.388299 
L 154.333485 305.206284 
L 154.995865 304.387216 
L 155.658245 303.932178 
L 156.320625 302.52156 
L 156.983005 302.430553 
L 157.645385 301.930011 
L 158.970145 301.292958 
L 161.619666 299.290791 
L 162.944426 298.744745 
L 163.606806 298.289707 
L 166.256326 297.152113 
L 166.918706 296.105525 
L 168.243466 295.149946 
L 168.905846 294.831419 
L 175.529647 293.921343 
L 176.192027 293.602817 
L 180.828687 293.238787 
L 182.815827 292.738245 
L 188.777248 291.96468 
L 189.439628 291.60065 
L 190.102008 291.509642 
L 190.764388 291.23662 
L 192.089148 291.009101 
L 192.751528 290.963597 
L 193.413908 290.736078 
L 196.063429 290.326544 
L 197.388189 289.962514 
L 199.375329 289.780498 
L 200.700089 289.643987 
L 201.362469 289.461972 
L 202.024849 289.416468 
L 204.011989 288.824919 
L 207.98627 288.233369 
L 208.64865 288.051354 
L 209.31103 287.141278 
L 211.29817 286.413218 
L 213.28531 285.867172 
L 213.94769 285.548646 
L 214.61007 285.503142 
L 217.921971 284.593066 
L 219.246731 284.502059 
L 219.909111 284.411051 
L 221.896251 283.819502 
L 224.545771 283.182449 
L 225.208151 282.909426 
L 225.870531 282.818418 
L 226.532911 282.499892 
L 233.156712 281.498808 
L 236.468612 280.588732 
L 237.130992 280.179198 
L 239.780512 279.451138 
L 241.105273 278.677573 
L 241.767653 278.222535 
L 243.754793 277.858505 
L 247.729073 276.675406 
L 249.053833 276.265872 
L 249.716213 276.174865 
L 251.040973 275.810834 
L 252.365734 275.492308 
L 253.028114 275.4013 
L 254.352874 274.855255 
L 255.015254 274.718743 
L 255.677634 274.44572 
L 256.340014 274.354713 
L 257.002394 274.036186 
L 257.664774 273.854171 
L 258.989534 273.763164 
L 260.314294 273.308126 
L 261.639054 273.217118 
L 262.301434 272.898592 
L 264.950955 272.443554 
L 267.600475 272.216035 
L 268.262855 272.079523 
L 269.587615 271.44247 
L 276.873796 268.393716 
L 277.536176 268.029686 
L 278.198556 267.301625 
L 278.860936 266.209534 
L 279.523316 265.344962 
L 280.185696 265.162947 
L 280.848076 265.162947 
L 282.172836 264.207367 
L 282.835216 264.025352 
L 283.497596 263.661322 
L 284.159976 263.52481 
L 284.822356 262.933261 
L 285.484736 262.751246 
L 287.471877 261.795666 
L 288.134257 260.976598 
L 288.796637 259.975515 
L 289.459017 259.56598 
L 290.121397 258.473889 
L 290.783777 257.791333 
L 291.446157 257.472806 
L 292.108537 257.290791 
L 294.758057 255.743662 
L 296.082817 254.697075 
L 296.745197 254.287541 
L 297.407577 253.331961 
L 298.069957 251.830336 
L 298.732338 250.874756 
L 299.394718 250.374215 
L 300.057098 250.101192 
L 302.706618 247.826002 
L 303.368998 247.370964 
L 304.693758 246.233369 
L 305.356138 245.323294 
L 306.680898 244.185699 
L 309.330418 242.502059 
L 309.992798 241.910509 
L 310.655179 241.773998 
L 312.642319 240.727411 
L 314.629459 239.726327 
L 315.954219 238.497725 
L 316.616599 237.72416 
L 317.941359 236.814085 
L 318.603739 236.632069 
L 319.266119 236.313543 
L 320.590879 235.448971 
L 321.253259 235.08494 
L 321.91564 234.993933 
L 323.2404 234.265872 
L 323.90278 233.901842 
L 324.56516 233.219285 
L 325.22754 232.809751 
L 325.88992 232.582232 
L 326.5523 232.127194 
L 329.20182 230.76208 
L 329.8642 230.170531 
L 332.51372 229.305959 
L 333.176101 228.850921 
L 333.838481 228.71441 
L 335.163241 228.259372 
L 337.150381 227.485807 
L 339.137521 226.757746 
L 340.462281 226.530228 
L 341.787041 225.392633 
L 343.111801 224.75558 
L 345.098942 223.617985 
L 346.423702 223.253954 
L 347.086082 222.84442 
L 347.748462 222.662405 
L 349.073222 221.797833 
L 349.735602 221.433803 
L 353.047502 220.660238 
L 355.034642 219.522644 
L 355.697022 219.431636 
L 356.359403 219.204117 
L 357.684163 218.931094 
L 359.671303 217.474973 
L 361.658443 217.019935 
L 362.320823 216.792416 
L 362.983203 216.291874 
L 366.957483 215.017768 
L 367.619863 214.972264 
L 372.256524 213.334128 
L 372.918904 213.015601 
L 374.906044 212.560563 
L 376.230804 212.242037 
L 376.893184 211.92351 
L 377.555564 211.786999 
L 379.542705 210.876923 
L 381.529845 209.921343 
L 382.192225 209.466306 
L 382.854605 209.28429 
L 384.841745 208.237703 
L 386.166505 207.919177 
L 387.491265 207.23662 
L 388.816025 206.872589 
L 389.478405 206.781582 
L 390.140785 206.326544 
L 390.803165 206.008017 
L 391.465546 205.871506 
L 392.790306 205.32546 
L 393.452686 205.188949 
L 394.115066 204.824919 
L 396.764586 204.415385 
L 398.089346 203.778332 
L 398.751726 203.232286 
L 399.414106 202.094691 
L 400.738866 201.821668 
L 401.401246 201.685157 
L 404.050767 200.320043 
L 404.713147 200.183532 
L 410.012187 197.63532 
L 411.999327 197.225785 
L 412.661707 196.861755 
L 416.635988 195.496641 
L 417.960748 194.677573 
L 418.623128 194.222535 
L 419.285508 193.904009 
L 419.947888 193.813001 
L 420.610268 193.585482 
L 421.272648 193.539978 
L 424.584548 192.675406 
L 425.246928 192.174865 
L 426.571689 191.719827 
L 428.558829 191.082774 
L 429.221209 190.673239 
L 429.883589 190.491224 
L 430.545969 190.036186 
L 431.208349 189.763164 
L 431.870729 189.353629 
L 432.533109 189.080607 
L 433.857869 188.76208 
L 435.845009 187.988516 
L 436.507389 187.487974 
L 437.16977 186.805417 
L 437.83215 186.441387 
L 438.49453 186.304875 
L 439.81929 185.303792 
L 440.48167 185.167281 
L 441.14405 184.166197 
L 441.80643 183.893174 
L 442.46881 183.392633 
L 443.13119 183.301625 
L 443.79357 182.846587 
L 444.45595 182.528061 
L 445.11833 182.391549 
L 445.78071 182.118527 
L 446.44309 181.617985 
L 447.10547 181.390466 
L 449.092611 180.070856 
L 451.742131 178.751246 
L 452.404511 178.660238 
L 453.729271 178.068689 
L 454.391651 177.704659 
L 455.054031 176.612568 
L 455.716411 176.021018 
L 456.378791 175.656988 
L 457.041171 175.520477 
L 458.365931 174.701408 
L 459.028311 174.564897 
L 460.353072 173.927844 
L 462.340212 173.108776 
L 463.664972 172.1987 
L 464.989732 170.833586 
L 466.314492 170.014518 
L 466.976872 169.604984 
L 467.639252 168.922427 
L 468.301632 168.467389 
L 469.626392 167.375298 
L 470.288772 167.102275 
L 470.951152 166.374215 
L 471.613532 165.873673 
L 472.938293 165.418635 
L 473.600673 164.872589 
L 474.925433 164.190033 
L 475.587813 164.008017 
L 476.250193 163.552979 
L 476.912573 163.416468 
L 478.899713 162.369881 
L 479.562093 161.914843 
L 480.886853 161.368797 
L 481.549233 161.232286 
L 482.211613 160.822752 
L 485.523514 159.776165 
L 486.185894 159.59415 
L 486.848274 159.275623 
L 487.510654 158.684074 
L 489.497794 157.956013 
L 490.822554 157.546479 
L 491.484934 157.045937 
L 494.134454 155.680823 
L 494.796835 155.316793 
L 496.121595 152.723077 
L 497.446355 151.175948 
L 498.108735 150.72091 
L 500.095875 149.856338 
L 500.758255 149.628819 
L 501.420635 149.537811 
L 502.083015 149.173781 
L 504.070155 148.582232 
L 506.719676 147.399133 
L 507.382056 146.989599 
L 508.706816 146.534561 
L 512.681096 144.259372 
L 513.343476 143.576815 
L 514.668236 142.848754 
L 515.330616 142.484724 
L 515.992996 142.257205 
L 516.655376 141.802167 
L 517.980137 141.165114 
L 519.967277 140.118527 
L 520.629657 139.936511 
L 521.292037 139.43597 
L 521.954417 139.162947 
L 522.616797 139.026436 
L 523.941557 138.571398 
L 525.928697 137.843337 
L 526.591077 137.342795 
L 527.915837 136.978765 
L 529.240597 136.478223 
L 529.902978 135.932178 
L 531.227738 135.522644 
L 531.890118 135.204117 
L 532.552498 135.022102 
L 533.877258 134.112026 
L 535.202018 133.520477 
L 536.526778 132.519393 
L 537.851538 132.064355 
L 538.513918 131.51831 
L 539.176298 131.427302 
L 540.501058 130.471723 
L 541.825819 129.83467 
L 542.488199 129.561647 
L 543.150579 128.87909 
L 547.124859 127.422969 
L 549.111999 126.558397 
L 551.099139 125.966847 
L 552.423899 125.784832 
L 553.08628 125.511809 
L 553.74866 125.420802 
L 555.07342 124.874756 
L 555.7358 124.829252 
L 558.38532 123.873673 
L 560.37246 122.508559 
L 564.346741 120.551896 
L 565.671501 119.732828 
L 566.333881 119.323294 
L 567.658641 119.004767 
L 568.983401 118.094691 
L 571.632921 117.275623 
L 572.295301 117.0026 
L 573.620061 116.684074 
L 576.931962 115.591983 
L 578.919102 115.227952 
L 579.581482 115.045937 
L 580.243862 114.727411 
L 580.906242 114.636403 
L 582.231002 114.090358 
L 582.893382 113.99935 
L 583.555762 113.680823 
L 584.880522 113.407801 
L 585.542902 113.089274 
L 587.530043 112.634236 
L 588.854803 112.361213 
L 592.829083 111.633153 
L 594.153843 111.36013 
L 594.816223 111.223619 
L 595.478603 110.950596 
L 596.140983 110.905092 
L 598.128123 110.359047 
L 598.790504 109.995016 
L 602.102404 109.175948 
L 602.764784 109.039437 
L 604.089544 108.584399 
L 606.076684 107.901842 
L 606.739064 107.810834 
L 608.726204 107.128277 
L 609.388584 107.128277 
L 610.713345 106.673239 
L 611.375725 106.036186 
L 612.038105 105.71766 
L 613.362865 105.308126 
L 616.012385 104.307042 
L 616.674765 104.170531 
L 617.337145 103.760997 
L 617.999525 103.624485 
L 618.661905 103.214951 
L 621.973806 102.259372 
L 622.636186 101.849837 
L 623.298566 101.667822 
L 623.960946 101.121777 
L 625.948086 100.757746 
L 627.272846 100.029686 
L 627.935226 99.301625 
L 629.259986 99.028602 
L 633.896647 97.982015 
L 634.559027 97.8 
L 635.883787 97.754496 
L 636.546167 97.43597 
L 639.195687 96.980932 
L 639.858067 96.662405 
L 641.845207 96.389382 
L 644.494727 95.570314 
L 646.481868 95.115276 
L 648.469008 94.614735 
L 651.118528 93.795666 
L 651.780908 93.659155 
L 652.443288 93.340628 
L 653.105668 93.249621 
L 653.768048 93.022102 
L 654.430428 92.612568 
L 656.417569 91.884507 
L 657.079949 91.383965 
L 658.404709 91.019935 
L 659.067089 90.746912 
L 660.391849 90.382882 
L 663.041369 89.199783 
L 665.028509 89.063272 
L 667.678029 88.244204 
L 668.34041 87.83467 
L 669.66517 87.425135 
L 671.65231 86.424052 
L 672.31469 86.287541 
L 672.97707 85.969014 
L 673.63945 85.878007 
L 680.925631 83.466306 
L 683.575151 82.829252 
L 684.237531 82.647237 
L 685.562291 82.010184 
L 686.224671 81.919177 
L 687.549431 81.555146 
L 688.211811 81.054605 
L 688.874191 80.736078 
L 689.536571 79.962514 
L 690.198951 79.461972 
L 691.523712 79.052438 
L 692.186092 78.506392 
L 699.472272 75.548646 
L 700.797032 75.230119 
L 702.121792 74.63857 
L 704.108933 73.455471 
L 704.771313 73.31896 
L 705.433693 72.818418 
L 706.758453 72.181365 
L 708.083213 71.362297 
L 710.070353 70.452221 
L 710.732733 69.997183 
L 712.057493 69.496641 
L 712.719873 69.041603 
L 714.044633 68.40455 
L 714.707014 67.949512 
L 716.031774 67.494475 
L 716.694154 67.357963 
L 719.343674 66.174865 
L 722.655574 65.03727 
L 723.317954 64.991766 
L 723.980334 64.809751 
L 724.642714 64.400217 
L 725.305094 64.309209 
L 725.967475 63.990683 
L 727.954615 63.581148 
L 731.266515 61.897508 
L 732.591275 61.169447 
L 733.253655 61.07844 
L 735.240795 59.986349 
L 737.227936 59.258288 
L 739.215076 58.393716 
L 743.189356 56.710076 
L 743.851736 56.664572 
L 744.514116 56.482557 
L 745.176496 56.027519 
L 745.838876 55.982015 
L 746.501256 55.8 
L 747.163636 55.8 
L 747.163636 55.8 
" clip-path="url(#p211ddfc242)" style="fill: none; stroke: #1f77b4; stroke-width: 1.5; stroke-linecap: square"/>
   </g>
   <g id="line2d_40">
    <path d="M 139.098744 307.8 
L 141.085884 307.708992 
L 143.073024 307.663489 
L 147.047304 307.572481 
L 150.359205 307.43597 
L 153.008725 307.43597 
L 153.671105 307.253954 
L 156.320625 307.162947 
L 158.307765 306.935428 
L 160.294906 306.753413 
L 164.269186 306.571398 
L 164.931566 306.571398 
L 165.593946 306.434886 
L 168.243466 306.343879 
L 169.568226 306.252871 
L 174.867267 306.161863 
L 178.179167 306.025352 
L 186.127728 305.934345 
L 189.439628 305.797833 
L 193.413908 305.706826 
L 196.063429 305.615818 
L 202.024849 305.52481 
L 204.011989 305.479307 
L 205.999129 305.433803 
L 207.98627 305.206284 
L 211.96055 305.16078 
L 213.28531 305.069772 
L 217.921971 304.978765 
L 225.208151 304.569231 
L 229.844812 304.478223 
L 231.169572 304.387216 
L 233.156712 304.296208 
L 237.130992 304.114193 
L 239.780512 304.068689 
L 241.767653 303.886674 
L 252.365734 303.249621 
L 255.015254 303.158613 
L 259.651914 302.931094 
L 261.639054 302.840087 
L 268.262855 302.476056 
L 275.549036 302.385049 
L 278.198556 302.112026 
L 279.523316 302.021018 
L 288.134257 301.338462 
L 292.108537 300.83792 
L 294.758057 300.746912 
L 300.057098 300.064355 
L 303.368998 299.973348 
L 311.979939 299.290791 
L 315.954219 298.835753 
L 317.941359 298.790249 
L 319.266119 298.699242 
L 321.91564 298.608234 
L 323.2404 298.517226 
L 326.5523 298.1987 
L 327.21468 298.016685 
L 331.18896 297.83467 
L 334.500861 297.743662 
L 343.111801 297.24312 
L 345.098942 297.152113 
L 353.709882 296.651571 
L 358.346543 296.560563 
L 359.008923 296.424052 
L 364.307963 296.333044 
L 368.944624 296.105525 
L 376.230804 296.014518 
L 380.867465 295.786999 
L 386.166505 295.695991 
L 391.465546 295.422969 
L 396.102206 295.331961 
L 408.687427 294.558397 
L 413.986468 294.467389 
L 431.208349 293.375298 
L 435.182629 293.28429 
L 437.16977 293.238787 
L 439.15691 293.193283 
L 441.14405 293.011268 
L 446.44309 292.92026 
L 447.76785 292.692741 
L 449.092611 292.601733 
L 452.404511 292.465222 
L 453.729271 292.374215 
L 455.054031 292.283207 
L 461.015452 292.192199 
L 462.340212 292.055688 
L 464.989732 292.010184 
L 465.652112 291.873673 
L 466.976872 291.782665 
L 467.639252 291.646154 
L 469.626392 291.555146 
L 480.886853 290.872589 
L 482.873993 290.781582 
L 486.185894 290.64507 
L 495.459215 290.554063 
L 500.095875 290.326544 
L 505.394915 290.235536 
L 508.044436 290.144529 
L 510.693956 290.099025 
L 512.018716 289.962514 
L 514.668236 289.871506 
L 521.292037 289.507476 
L 525.266317 289.461972 
L 527.253457 289.279957 
L 529.240597 289.234453 
L 533.877258 289.143445 
L 536.526778 289.052438 
L 542.488199 288.96143 
L 545.137719 288.870423 
L 549.111999 288.779415 
L 555.7358 288.415385 
L 557.72294 288.415385 
L 558.38532 288.278873 
L 559.71008 288.187866 
L 562.3596 288.096858 
L 570.308161 288.00585 
L 573.620061 287.869339 
L 584.880522 287.823835 
L 586.205282 287.732828 
L 588.192423 287.687324 
L 596.803363 287.596316 
L 598.128123 287.505309 
L 605.414304 287.414301 
L 608.063824 287.323294 
L 616.012385 287.27779 
L 617.337145 287.186782 
L 627.272846 287.141278 
L 629.259986 286.959263 
L 640.520447 286.868256 
L 642.507587 286.822752 
L 659.729469 286.731744 
L 662.378989 286.640737 
L 674.30183 286.549729 
L 676.95135 286.458722 
L 681.588011 286.367714 
L 686.887051 286.094691 
L 689.536571 286.003684 
L 692.186092 285.912676 
L 696.160372 285.821668 
L 698.147512 285.776165 
L 700.797032 285.685157 
L 702.784173 285.639653 
L 706.096073 285.548646 
L 707.420833 285.412134 
L 711.395113 285.321127 
L 718.681294 284.911593 
L 721.993194 284.820585 
L 724.642714 284.729577 
L 729.279375 284.63857 
L 731.928895 284.547562 
L 737.227936 284.456555 
L 739.215076 284.411051 
L 742.526976 284.320043 
L 746.501256 284.138028 
L 747.163636 284.138028 
L 747.163636 284.138028 
" clip-path="url(#p211ddfc242)" style="fill: none; stroke: #ff7f0e; stroke-width: 1.5; stroke-linecap: square"/>
   </g>
   <g id="patch_3">
    <path d="M 108 320.4 
L 108 43.2 
" style="fill: none; stroke: #a9a9a9; stroke-width: 0.8; stroke-linejoin: miter; stroke-linecap: square"/>
   </g>
   <g id="patch_4">
    <path d="M 777.6 320.4 
L 777.6 43.2 
" style="fill: none"/>
   </g>
   <g id="patch_5">
    <path d="M 108 320.4 
L 777.6 320.4 
" style="fill: none; stroke: #a9a9a9; stroke-width: 0.8; stroke-linejoin: miter; stroke-linecap: square"/>
   </g>
   <g id="patch_6">
    <path d="M 108 43.2 
L 777.6 43.2 
" style="fill: none"/>
   </g>
   <g id="text_20">
    <!-- get_subscribe history -->
    <g style="fill: #a9a9a9" transform="translate(378.6075 37.2) scale(0.12 -0.12)">
     <defs>
      <path id="DejaVuSans-67" d="M 2906 1791 
Q 2906 2416 2648 2759 
Q 2391 3103 1925 3103 
Q 1463 3103 1205 2759 
Q 947 2416 947 1791 
Q 947 1169 1205 825 
Q 1463 481 1925 481 
Q 2391 481 2648 825 
Q 2906 1169 2906 1791 
z
M 3481 434 
Q 3481 -459 3084 -895 
Q 2688 -1331 1869 -1331 
Q 1566 -1331 1297 -1286 
Q 1028 -1241 775 -1147 
L 775 -588 
Q 1028 -725 1275 -790 
Q 1522 -856 1778 -856 
Q 2344 -856 2625 -561 
Q 2906 -266 2906 331 
L 2906 616 
Q 2728 306 2450 153 
Q 2172 0 1784 0 
Q 1141 0 747 490 
Q 353 981 353 1791 
Q 353 2603 747 3093 
Q 1141 3584 1784 3584 
Q 2172 3584 2450 3431 
Q 2728 3278 2906 2969 
L 2906 3500 
L 3481 3500 
L 3481 434 
z
" transform="scale(0.015625)"/>
      <path id="DejaVuSans-65" d="M 3597 1894 
L 3597 1613 
L 953 1613 
Q 991 1019 1311 708 
Q 1631 397 2203 397 
Q 2534 397 2845 478 
Q 3156 559 3463 722 
L 3463 178 
Q 3153 47 2828 -22 
Q 2503 -91 2169 -91 
Q 1331 -91 842 396 
Q 353 884 353 1716 
Q 353 2575 817 3079 
Q 1281 3584 2069 3584 
Q 2775 3584 3186 3129 
Q 3597 2675 3597 1894 
z
M 3022 2063 
Q 3016 2534 2758 2815 
Q 2500 3097 2075 3097 
Q 1594 3097 1305 2825 
Q 1016 2553 972 2059 
L 3022 2063 
z
" transform="scale(0.015625)"/>
      <path id="DejaVuSans-74" d="M 1172 4494 
L 1172 3500 
L 2356 3500 
L 2356 3053 
L 1172 3053 
L 1172 1153 
Q 1172 725 1289 603 
Q 1406 481 1766 481 
L 2356 481 
L 2356 0 
L 1766 0 
Q 1100 0 847 248 
Q 594 497 594 1153 
L 594 3053 
L 172 3053 
L 172 3500 
L 594 3500 
L 594 4494 
L 1172 4494 
z
" transform="scale(0.015625)"/>
      <path id="DejaVuSans-5f" d="M 3263 -1063 
L 3263 -1509 
L -63 -1509 
L -63 -1063 
L 3263 -1063 
z
" transform="scale(0.015625)"/>
      <path id="DejaVuSans-73" d="M 2834 3397 
L 2834 2853 
Q 2591 2978 2328 3040 
Q 2066 3103 1784 3103 
Q 1356 3103 1142 2972 
Q 928 2841 928 2578 
Q 928 2378 1081 2264 
Q 1234 2150 1697 2047 
L 1894 2003 
Q 2506 1872 2764 1633 
Q 3022 1394 3022 966 
Q 3022 478 2636 193 
Q 2250 -91 1575 -91 
Q 1294 -91 989 -36 
Q 684 19 347 128 
L 347 722 
Q 666 556 975 473 
Q 1284 391 1588 391 
Q 1994 391 2212 530 
Q 2431 669 2431 922 
Q 2431 1156 2273 1281 
Q 2116 1406 1581 1522 
L 1381 1569 
Q 847 1681 609 1914 
Q 372 2147 372 2553 
Q 372 3047 722 3315 
Q 1072 3584 1716 3584 
Q 2034 3584 2315 3537 
Q 2597 3491 2834 3397 
z
" transform="scale(0.015625)"/>
      <path id="DejaVuSans-75" d="M 544 1381 
L 544 3500 
L 1119 3500 
L 1119 1403 
Q 1119 906 1312 657 
Q 1506 409 1894 409 
Q 2359 409 2629 706 
Q 2900 1003 2900 1516 
L 2900 3500 
L 3475 3500 
L 3475 0 
L 2900 0 
L 2900 538 
Q 2691 219 2414 64 
Q 2138 -91 1772 -91 
Q 1169 -91 856 284 
Q 544 659 544 1381 
z
M 1991 3584 
L 1991 3584 
z
" transform="scale(0.015625)"/>
      <path id="DejaVuSans-62" d="M 3116 1747 
Q 3116 2381 2855 2742 
Q 2594 3103 2138 3103 
Q 1681 3103 1420 2742 
Q 1159 2381 1159 1747 
Q 1159 1113 1420 752 
Q 1681 391 2138 391 
Q 2594 391 2855 752 
Q 3116 1113 3116 1747 
z
M 1159 2969 
Q 1341 3281 1617 3432 
Q 1894 3584 2278 3584 
Q 2916 3584 3314 3078 
Q 3713 2572 3713 1747 
Q 3713 922 3314 415 
Q 2916 -91 2278 -91 
Q 1894 -91 1617 61 
Q 1341 213 1159 525 
L 1159 0 
L 581 0 
L 581 4863 
L 1159 4863 
L 1159 2969 
z
" transform="scale(0.015625)"/>
      <path id="DejaVuSans-63" d="M 3122 3366 
L 3122 2828 
Q 2878 2963 2633 3030 
Q 2388 3097 2138 3097 
Q 1578 3097 1268 2742 
Q 959 2388 959 1747 
Q 959 1106 1268 751 
Q 1578 397 2138 397 
Q 2388 397 2633 464 
Q 2878 531 3122 666 
L 3122 134 
Q 2881 22 2623 -34 
Q 2366 -91 2075 -91 
Q 1284 -91 818 406 
Q 353 903 353 1747 
Q 353 2603 823 3093 
Q 1294 3584 2113 3584 
Q 2378 3584 2631 3529 
Q 2884 3475 3122 3366 
z
" transform="scale(0.015625)"/>
      <path id="DejaVuSans-72" d="M 2631 2963 
Q 2534 3019 2420 3045 
Q 2306 3072 2169 3072 
Q 1681 3072 1420 2755 
Q 1159 2438 1159 1844 
L 1159 0 
L 581 0 
L 581 3500 
L 1159 3500 
L 1159 2956 
Q 1341 3275 1631 3429 
Q 1922 3584 2338 3584 
Q 2397 3584 2469 3576 
Q 2541 3569 2628 3553 
L 2631 2963 
z
" transform="scale(0.015625)"/>
      <path id="DejaVuSans-69" d="M 603 3500 
L 1178 3500 
L 1178 0 
L 603 0 
L 603 3500 
z
M 603 4863 
L 1178 4863 
L 1178 4134 
L 603 4134 
L 603 4863 
z
" transform="scale(0.015625)"/>
      <path id="DejaVuSans-20" transform="scale(0.015625)"/>
      <path id="DejaVuSans-68" d="M 3513 2113 
L 3513 0 
L 2938 0 
L 2938 2094 
Q 2938 2591 2744 2837 
Q 2550 3084 2163 3084 
Q 1697 3084 1428 2787 
Q 1159 2491 1159 1978 
L 1159 0 
L 581 0 
L 581 4863 
L 1159 4863 
L 1159 2956 
Q 1366 3272 1645 3428 
Q 1925 3584 2291 3584 
Q 2894 3584 3203 3211 
Q 3513 2838 3513 2113 
z
" transform="scale(0.015625)"/>
      <path id="DejaVuSans-6f" d="M 1959 3097 
Q 1497 3097 1228 2736 
Q 959 2375 959 1747 
Q 959 1119 1226 758 
Q 1494 397 1959 397 
Q 2419 397 2687 759 
Q 2956 1122 2956 1747 
Q 2956 2369 2687 2733 
Q 2419 3097 1959 3097 
z
M 1959 3584 
Q 2709 3584 3137 3096 
Q 3566 2609 3566 1747 
Q 3566 888 3137 398 
Q 2709 -91 1959 -91 
Q 1206 -91 779 398 
Q 353 888 353 1747 
Q 353 2609 779 3096 
Q 1206 3584 1959 3584 
z
" transform="scale(0.015625)"/>
      <path id="DejaVuSans-79" d="M 2059 -325 
Q 1816 -950 1584 -1140 
Q 1353 -1331 966 -1331 
L 506 -1331 
L 506 -850 
L 844 -850 
Q 1081 -850 1212 -737 
Q 1344 -625 1503 -206 
L 1606 56 
L 191 3500 
L 800 3500 
L 1894 763 
L 2988 3500 
L 3597 3500 
L 2059 -325 
z
" transform="scale(0.015625)"/>
     </defs>
     <use xlink:href="#DejaVuSans-67"/>
     <use xlink:href="#DejaVuSans-65" x="63.476562"/>
     <use xlink:href="#DejaVuSans-74" x="125"/>
     <use xlink:href="#DejaVuSans-5f" x="164.208984"/>
     <use xlink:href="#DejaVuSans-73" x="214.208984"/>
     <use xlink:href="#DejaVuSans-75" x="266.308594"/>
     <use xlink:href="#DejaVuSans-62" x="329.6875"/>
     <use xlink:href="#DejaVuSans-73" x="393.164062"/>
     <use xlink:href="#DejaVuSans-63" x="445.263672"/>
     <use xlink:href="#DejaVuSans-72" x="500.244141"/>
     <use xlink:href="#DejaVuSans-69" x="541.357422"/>
     <use xlink:href="#DejaVuSans-62" x="569.140625"/>
     <use xlink:href="#DejaVuSans-65" x="632.617188"/>
     <use xlink:href="#DejaVuSans-20" x="694.140625"/>
     <use xlink:href="#DejaVuSans-68" x="725.927734"/>
     <use xlink:href="#DejaVuSans-69" x="789.306641"/>
     <use xlink:href="#DejaVuSans-73" x="817.089844"/>
     <use xlink:href="#DejaVuSans-74" x="869.189453"/>
     <use xlink:href="#DejaVuSans-6f" x="908.398438"/>
     <use xlink:href="#DejaVuSans-72" x="969.580078"/>
     <use xlink:href="#DejaVuSans-79" x="1010.693359"/>
    </g>
   </g>
   <g id="legend_1">
    <g id="line2d_41">
     <path d="M 815.08 328.498438 
L 825.08 328.498438 
L 835.08 328.498438 
" style="fill: none; stroke: #1f77b4; stroke-width: 1.5; stroke-linecap: square"/>
    </g>
    <g id="text_21">
     <!-- star -->
     <g style="fill: #a9a9a9" transform="translate(843.08 331.998438) scale(0.1 -0.1)">
      <defs>
       <path id="DejaVuSans-61" d="M 2194 1759 
Q 1497 1759 1228 1600 
Q 959 1441 959 1056 
Q 959 750 1161 570 
Q 1363 391 1709 391 
Q 2188 391 2477 730 
Q 2766 1069 2766 1631 
L 2766 1759 
L 2194 1759 
z
M 3341 1997 
L 3341 0 
L 2766 0 
L 2766 531 
Q 2569 213 2275 61 
Q 1981 -91 1556 -91 
Q 1019 -91 701 211 
Q 384 513 384 1019 
Q 384 1609 779 1909 
Q 1175 2209 1959 2209 
L 2766 2209 
L 2766 2266 
Q 2766 2663 2505 2880 
Q 2244 3097 1772 3097 
Q 1472 3097 1187 3025 
Q 903 2953 641 2809 
L 641 3341 
Q 956 3463 1253 3523 
Q 1550 3584 1831 3584 
Q 2591 3584 2966 3190 
Q 3341 2797 3341 1997 
z
" transform="scale(0.015625)"/>
      </defs>
      <use xlink:href="#DejaVuSans-73"/>
      <use xlink:href="#DejaVuSans-74" x="52.099609"/>
      <use xlink:href="#DejaVuSans-61" x="91.308594"/>
      <use xlink:href="#DejaVuSans-72" x="152.587891"/>
     </g>
    </g>
    <g id="line2d_42">
     <path d="M 815.08 343.176562 
L 825.08 343.176562 
L 835.08 343.176562 
" style="fill: none; stroke: #ff7f0e; stroke-width: 1.5; stroke-linecap: square"/>
    </g>
    <g id="text_22">
     <!-- fork -->
     <g style="fill: #a9a9a9" transform="translate(843.08 346.676562) scale(0.1 -0.1)">
      <defs>
       <path id="DejaVuSans-66" d="M 2375 4863 
L 2375 4384 
L 1825 4384 
Q 1516 4384 1395 4259 
Q 1275 4134 1275 3809 
L 1275 3500 
L 2222 3500 
L 2222 3053 
L 1275 3053 
L 1275 0 
L 697 0 
L 697 3053 
L 147 3053 
L 147 3500 
L 697 3500 
L 697 3744 
Q 697 4328 969 4595 
Q 1241 4863 1831 4863 
L 2375 4863 
z
" transform="scale(0.015625)"/>
       <path id="DejaVuSans-6b" d="M 581 4863 
L 1159 4863 
L 1159 1991 
L 2875 3500 
L 3609 3500 
L 1753 1863 
L 3688 0 
L 2938 0 
L 1159 1709 
L 1159 0 
L 581 0 
L 581 4863 
z
" transform="scale(0.015625)"/>
      </defs>
      <use xlink:href="#DejaVuSans-66"/>
      <use xlink:href="#DejaVuSans-6f" x="35.205078"/>
      <use xlink:href="#DejaVuSans-72" x="96.386719"/>
      <use xlink:href="#DejaVuSans-6b" x="137.5"/>
     </g>
    </g>
   </g>
  </g>
 </g>
 <defs>
  <clipPath id="p211ddfc242">
   <rect x="108" y="43.2" width="669.6" height="277.2"/>
  </clipPath>
 </defs>
</svg>
